<?xml version="1.0" encoding="UTF-8"?>
<!DOCTYPE svg PUBLIC "-//W3C//DTD SVG 1.1//EN" "http://www.w3.org/Graphics/SVG/1.1/DTD/svg11.dtd">
<!-- Creator: CorelDRAW 2021 (64-Bit) -->
<svg xmlns="http://www.w3.org/2000/svg" xml:space="preserve" width="100%" height="100%" version="1.1" style="shape-rendering:geometricPrecision; text-rendering:geometricPrecision; image-rendering:optimizeQuality; fill-rule:evenodd; clip-rule:evenodd"
viewBox="0 0 20000 20000"
 xmlns:xlink="http://www.w3.org/1999/xlink"
 xmlns:xodm="http://www.corel.com/coreldraw/odm/2003">
 <defs>
  <style type="text/css">
   <![CDATA[
    .fil0 {fill:#1972F2;fill-rule:nonzero}
   ]]>
  </style>
 </defs>
 <g id="Layer_x0020_1">
  <metadata id="CorelCorpID_0Corel-Layer"/>
  <path class="fil0" d="M10000 1468.75c-1759.57,0 -3453.52,533.2 -4889.06,1538.09 -1402.73,984.38 -2469.14,2346.09 -3080.27,3941.6l-151.76 426.56 1874.41 0 77.93 -205.08c336.33,-730.08 795.7,-1390.43 1374.02,-1968.75 1279.69,-1279.69 2981.84,-1985.16 4794.73,-1985.16 1812.89,0 3515.04,705.47 4794.73,1985.16 1279.69,1279.69 1985.16,2981.84 1985.16,4794.73 0,1808.79 -705.47,3515.04 -1985.16,4794.73 -1279.69,1279.69 -2981.84,1985.16 -4794.73,1985.16 -1808.79,0 -3510.94,-705.47 -4794.73,-1985.16 -574.22,-574.22 -1037.7,-1234.57 -1374.02,-1964.65l-77.93 -205.08 -1874.41 0 147.66 426.56c611.13,1595.51 1677.54,2957.23 3080.27,3941.6 1439.64,1013.09 3129.49,1542.19 4893.16,1542.19 4704.49,0 8531.25,-3826.76 8531.25,-8531.25 0,-4704.49 -3826.76,-8531.25 -8531.25,-8531.25z"/>
  <polygon class="fil0" points="1468.75,10877.73 9249.41,10877.73 7461.13,12711.13 8687.5,13937.5 12625,10000 8687.5,6062.5 7416.02,7288.87 9249.42,9122.27 1468.75,9122.27 1468.75,10877.74 "/>
 </g>
</svg>
