<?xml version="1.0" encoding="UTF-8"?>
<!DOCTYPE svg PUBLIC "-//W3C//DTD SVG 1.1//EN" "http://www.w3.org/Graphics/SVG/1.1/DTD/svg11.dtd">
<!-- Creator: CorelDRAW 2021 (64-Bit) -->
<svg xmlns="http://www.w3.org/2000/svg" xml:space="preserve" width="100%" height="100%" version="1.1" style="shape-rendering:geometricPrecision; text-rendering:geometricPrecision; image-rendering:optimizeQuality; fill-rule:evenodd; clip-rule:evenodd"
viewBox="0 0 21000 29700"
 xmlns:xlink="http://www.w3.org/1999/xlink"
 xmlns:xodm="http://www.corel.com/coreldraw/odm/2003">
 <defs>
  <style type="text/css">
   <![CDATA[
    .fil0 {fill:#3681D6;fill-rule:nonzero}
   ]]>
  </style>
 </defs>
 <g id="Layer_x0020_1">
  <metadata id="CorelCorpID_0Corel-Layer"/>
  <path class="fil0" d="M10490.16 6186.02c-253.31,0 -506.67,56.77 -702.88,170.3l-6265.27 3624.14c-392.52,227.06 -392.52,586.11 0,813.18l6265.26 3624.14c392.52,227.06 1013.21,227.06 1405.69,0l6265.26 -3624.14c392.52,-227.02 392.52,-586.11 0,-813.13l-6265.26 -3624.14c-196.26,-113.61 -449.53,-170.34 -702.8,-170.34l0 -0.01zm-4811.67 3388.3c0.05,0 0.05,0 0.05,0 0,0 0,0 0,0 327.23,8.46 637.8,89.63 869.32,227.11 245.64,145.67 383.88,343.62 383.88,549.83 0,429.42 -586.89,777.66 -1310.58,777.66 -347.53,0 -681.13,-82.03 -926.73,-227.76 -245.59,-145.72 -383.83,-343.67 -383.83,-549.88 0,-429.42 586.88,-777.66 1310.57,-777.66 19.04,0 38.4,0.28 57.28,0.76l0.04 -0.06zm4845.6 6.87c715.95,6.27 1291.14,352.61 1291.14,777.57 0,206.12 -138.83,403.13 -383.67,549.8 -246.85,147.88 -583.58,232.87 -935.26,232.87 -723.69,0 -1310.57,-348.24 -1310.57,-777.66 0,-208.68 142.2,-407.84 392.48,-554.93 246.22,-144.7 579.1,-227.74 926.62,-227.74 6.24,0 13.12,0.09 19.2,0.09l0.06 0zm4842.15 18.25c0.04,0 0.04,0 0.04,0 0,0 0,0 0,0 327.3,8.46 638.05,89.12 869.39,227.01 243.3,145.03 379.72,342.47 379.72,547.45 0,429.42 -586.88,777.66 -1310.57,777.66 -345.6,0 -677.8,-80.64 -922.73,-225.39 -245.83,-145.29 -383.68,-343.61 -383.68,-549.82 0,-429.42 586.88,-777.66 1310.57,-777.66 19.04,0 74.05,9.15 57.28,0.76l-0.02 -0.01zm-12262.59 1880.72c-235.96,-6.36 -396.38,177.84 -396.38,503.67l0 6468c0,453.3 310.49,991.06 703.01,1217.75l6026.43 3480.09c392.52,226.65 703.01,47.41 703.01,-405.85l0 -6468.12c0,-453.3 -310.49,-990.94 -703.01,-1217.67l-6026.43 -3480.05c-110.33,-63.78 -214.31,-95.44 -306.63,-97.9l0 0.08zm14797.33 0.08c-92.29,2.46 -196.18,34.04 -306.55,97.82l-6026.63 3480.05c-392.52,226.69 -703.01,764.45 -703.01,1217.75l0 6468.16c0,453.22 310.49,632.38 703.01,405.64l6026.67 -3479.91c392.52,-226.69 702.88,-764.37 702.88,-1217.67l0 -6468.16c0,-325.75 -160.37,-509.91 -396.38,-503.59l0.01 -0.09zm-9644.66 3551.62c348.59,-24.21 792.11,285.15 1090.6,762.79 189.56,303.35 297.49,638.9 297.42,924.83 0.65,258.76 -86.86,457.68 -244.85,556.41 -345.87,216.14 -930.4,-95.11 -1305.31,-695.05 -189.4,-303.08 -297.23,-638.14 -297.39,-923.92 -0.81,-259.03 86.6,-458.44 244.82,-557.32 62.01,-38.75 133.91,-61.36 212.82,-66.96l1.89 -0.78zm6789.03 1175.76c-18.4,-6.58 -18.24,-6.66 -18.24,-6.66 78.97,3.71 151.17,25.01 213.86,62.67 159.92,96.09 250.81,293.94 254.49,553.07 4.24,285.03 -97.7,621.03 -281.2,926.44 -364.35,606.41 -943.35,927.83 -1292.95,717.78 -159.22,-95.67 -250.06,-292.03 -254.47,-549.59 -5.09,-285.9 96.95,-623.29 281.18,-929.91 290.08,-482.79 728.12,-799.86 1078.99,-781.01l18.34 7.21zm-11382.78 1205.04c348.59,-24.22 792.11,285.14 1090.59,762.78 189.57,303.35 297.43,638.95 297.36,924.87 0.72,258.77 -86.79,457.69 -244.78,556.42 -345.87,216.14 -930.4,-95.11 -1305.31,-695.05 -189.4,-303.08 -297.23,-638.14 -297.39,-923.92 -0.81,-259.08 86.6,-458.49 244.82,-557.36 62.01,-38.76 133.91,-61.37 212.82,-66.97l1.89 -0.77z"/>
 </g>
</svg>
