<?xml version="1.0" encoding="UTF-8"?>
<!DOCTYPE svg PUBLIC "-//W3C//DTD SVG 1.1//EN" "http://www.w3.org/Graphics/SVG/1.1/DTD/svg11.dtd">
<!-- Creator: CorelDRAW 2021 (64-Bit) -->
<svg xmlns="http://www.w3.org/2000/svg" xml:space="preserve" width="100%" height="100%" version="1.1" style="shape-rendering:geometricPrecision; text-rendering:geometricPrecision; image-rendering:optimizeQuality; fill-rule:evenodd; clip-rule:evenodd"
viewBox="0 0 20000 20000"
 xmlns:xlink="http://www.w3.org/1999/xlink"
 xmlns:xodm="http://www.corel.com/coreldraw/odm/2003">
 <defs>
  <style type="text/css">
   <![CDATA[
    .fil0 {fill:#1972F2;fill-rule:nonzero}
   ]]>
  </style>
 </defs>
 <g id="Layer_x0020_1">
  <metadata id="CorelCorpID_0Corel-Layer"/>
  <path class="fil0" d="M11846.25 6228.75l-7350 0c-385,0 -700,-315 -700,-700 0,-385 315,-700 700,-700l7350 0c385,0 700,315 700,700 0,385 -315,700 -700,700zm-4287.5 3850l-3150 0c-385,0 -700,-315 -700,-700 0,-385 315,-700 700,-700l3150 0c385,0 700,315 700,700 0,385 -315,700 -700,700zm-1400 3850l-1750 0c-385,0 -700,-315 -700,-700 0,-385 315,-700 700,-700l1750 0c385,0 700,315 700,700 0,385 -315,700 -700,700zm7341.25 -5678.75c-2896.25,0 -5250,2353.75 -5250,5250 0,2896.25 2353.75,5250 5250,5250 2896.25,0 5250,-2353.75 5250,-5250 0,-2896.25 -2353.75,-5250 -5250,-5250zm0 9100c-2126.25,0 -3850,-1723.75 -3850,-3850 0,-2126.25 1723.75,-3850 3850,-3850 2126.25,0 3850,1723.75 3850,3850 0,2126.25 -1723.75,3850 -3850,3850z"/>
  <path class="fil0" d="M13500 15232.5c-271.25,271.25 -717.5,271.25 -988.75,0l-1487.5 -1487.5c-271.25,-271.25 -271.25,-717.5 0,-988.75 271.25,-271.25 717.5,-271.25 988.75,0l1487.5 1487.5c271.25,271.25 271.25,717.5 0,988.75z"/>
  <path class="fil0" d="M15976.25 12756.25l-2476.25 2476.25c-271.25,271.25 -717.5,271.25 -988.75,0 -271.25,-271.25 -271.25,-717.5 0,-988.75l2476.25 -2476.25c271.25,-271.25 717.5,-271.25 988.75,0 271.25,271.25 271.25,717.5 0,988.75z"/>
  <path class="fil0" d="M6850 16028.75l-4147.5 0 0 -13300 10850 0 0 4121.25c0,385 315,700 700,700 385,0 700,-315 700,-700l0 -4471.25c0,-577.5 -472.5,-1050 -1050,-1050l-11550 0c-577.5,0 -1050,472.5 -1050,1050l0 14000c0,577.5 472.5,1050 1050,1050l4497.5 0c385,0 700,-315 700,-700 0,-393.75 -315,-700 -700,-700z"/>
 </g>
</svg>
